<svg xmlns="http://www.w3.org/2000/svg" viewBox="0 0 24 24" width="24" height="24" role="img" aria-label="Coin">
  <circle cx="12" cy="12" r="9" fill="#f7d774"></circle>
  <circle cx="12" cy="12" r="6.8" fill="none" stroke="#b8860b" stroke-width="0.7" opacity="0.6"></circle>
  <path fill="#7a5a14" d="M11.1 6.3a.9.9 0 1 1 1.8 0v.7c1.6.3 2.7 1.3 2.8 2.6a.9.9 0 1 1-1.8.1c0-.6-.7-1.1-1.9-1.1-1.1 0-1.9.5-1.9 1.1 0 .5.4.9 1.5 1.1l1.2.2c2 .4 3.1 1.4 3.1 3 0 1.5-1.2 2.6-2.9 2.9v.7a.9.9 0 1 1-1.8 0V17c-1.7-.3-2.8-1.4-2.9-2.7a.9.9 0 1 1 1.8-.1c0 .6.7 1.1 2 1.1 1.2 0 2-.5 2-1.2 0-.5-.4-.9-1.5-1.1l-1.2-.2c-2-.4-3.1-1.4-3.1-3 0-1.4 1.1-2.5 2.8-2.8v-.7Z"></path>
</svg>
